<svg width="77" height="21" viewBox="0 0 77 21" fill="none" xmlns="http://www.w3.org/2000/svg">
<path d="M6.11321 20.561V4.67912L0.697021 6.33951V2.36903L6.11321 0.723083H11.5294V20.561H6.11321Z" fill="white"/>
<path d="M23.448 20.561H18.0024V0.723083H31.653C33.1208 0.723083 34.3635 0.872277 35.3812 1.17066C36.4087 1.46905 37.2404 1.89257 37.8765 2.44122C38.5223 2.98987 38.9871 3.65402 39.2709 4.43368C39.5644 5.20371 39.7112 6.06518 39.7112 7.0181C39.7112 7.85551 39.5889 8.58704 39.3443 9.21269C39.1094 9.83834 38.7865 10.3774 38.3755 10.8298C37.9743 11.2725 37.5046 11.6479 36.9664 11.9559C36.4282 12.2639 35.8607 12.519 35.2638 12.7211L41.8689 20.561H35.4986L29.3926 13.2554H23.448V20.561ZM34.207 6.98922C34.207 6.6042 34.1531 6.27694 34.0455 6.00743C33.9477 5.73792 33.7715 5.52135 33.5171 5.35771C33.2627 5.18446 32.9202 5.05933 32.4896 4.98232C32.0689 4.90532 31.5405 4.86682 30.9044 4.86682H23.448V9.11162H30.9044C31.5405 9.11162 32.0689 9.07312 32.4896 8.99612C32.9202 8.91911 33.2627 8.79879 33.5171 8.63516C33.7715 8.46191 33.9477 8.24052 34.0455 7.97101C34.1531 7.7015 34.207 7.37424 34.207 6.98922Z" fill="white"/>
<path d="M71.4158 20.561V6.62827L63.93 20.561H58.7046L51.2188 6.62827V20.561H45.7733V0.723083H53.171L61.3173 15.7387L69.4636 0.723083H76.832V20.561H71.4158Z" fill="white"/>
</svg>
