<svg width="31" height="31" viewBox="0 0 31 31" fill="none" xmlns="http://www.w3.org/2000/svg">
<path d="M12.5033 17.0371L15.5 14.7638L18.4838 17.0371L17.3471 13.3558L20.3438 10.9792H16.6754L15.5 7.34958L14.3246 10.9792H10.6563L13.64 13.3558L12.5033 17.0371ZM25.8333 12.2708C25.8333 6.56167 21.2092 1.9375 15.5 1.9375C9.79084 1.9375 5.16667 6.56167 5.16667 12.2708C5.16667 14.8929 6.14834 17.2696 7.75001 19.0908V29.0625L15.5 26.4792L23.25 29.0625V19.0908C24.8517 17.2696 25.8333 14.8929 25.8333 12.2708ZM15.5 4.52083C19.7754 4.52083 23.25 7.99542 23.25 12.2708C23.25 16.5462 19.7754 20.0208 15.5 20.0208C11.2246 20.0208 7.75001 16.5462 7.75001 12.2708C7.75001 7.99542 11.2246 4.52083 15.5 4.52083Z" fill="#C0EF5C"/>
</svg>
